<?xml version="1.0" encoding="UTF-8"?>
<svg id="Layer_1" data-name="Layer 1" xmlns="http://www.w3.org/2000/svg" version="1.1" viewBox="0 0 819 248">
  <defs>
    <style>
      .cls-1 {
        fill: none;
        stroke: #000;
        stroke-linecap: round;
        stroke-linejoin: round;
        stroke-width: 5px;
      }
    </style>
  </defs>
  <path class="cls-1" d="M682.3,57.7l-34.3,54.3s26.1-19.4,30.4-15.3c4.3,4.1-14.5,14-14.5,14,15.1-.2,39.9-9.8,67.7-14.4,43.9-7.3,90.4-9.2,80.6,6"/>
  <path class="cls-1" d="M573.8,111.5c-3.2-3.3-17,8.9-11.4,10.9,5.6,2,21.7-13.3,21.7-13.3,0,0-6.7,11.2.7,9.4,23-5.6,57.6-53.2,57.6-53.2l-34.3,50.7s22.5-15,26.9-13.1-14.2,13.9-14.2,13.9"/>
  <path class="cls-1" d="M107.2,98.5L629.4,22.6l-188.7,72.7s100.2-17.6,97.6,28.4c-1.1,19.4-48.6,57.8-114.5,74.3-90.2,22.7-206.5,19.3-209.9,6.1-5.9-22.8,563.6-89.5,563.6-89.5l-125.1,27.4"/>
  <line class="cls-1" x1="484" y1="10" x2="363.6" y2="239.1"/>
  <line class="cls-1" x1="313.9" y1="124.4" x2="365.6" y2="116.2"/>
  <path class="cls-1" d="M240.3,169.7c6.1-.3,20.6-9.8,16.3-12.4-4.3-2.5-19,12.4-5.5,10.9,13.5-1.5,36.2-19.6,43.1-18.2,0,0-18.2,10.5-12.9,12.7,5.3,2.1,22.4-12.2,22.4-12.2,0,0-9.6,12.9.6,8.8,23.3-9.4,56.4-57.2,56.4-57.2,0,0-37,50.3-26.6,52.6s56.7-53.7,56.7-53.7c0,0-36.1,48.9-27.1,50.2,6.1.9,25.8-13.2,25.8-13.2,0,0-12.2,13.8,2.4,9.1"/>
  <line class="cls-1" x1="250.9" y1="96.4" x2="207.9" y2="177.5"/>
  <path class="cls-1" d="M205.6,98.2l-43.8,83c21.9-60.9-153.4-29.4-153.4-29.4l342.6-49.6"/>
</svg>